<?xml version="1.0" encoding="UTF-8"?>
<svg width="157px" height="110px" viewBox="0 0 157 110" version="1.1" xmlns="http://www.w3.org/2000/svg" xmlns:xlink="http://www.w3.org/1999/xlink">
    <g id="系统配置" stroke="none" stroke-width="1" fill="none" fill-rule="evenodd" opacity="0.2">
        <g id="Sign-in" transform="translate(-1283.000000, -615.000000)">
            <g id="未标题-7复制" transform="translate(1375.000000, 670.000000) scale(-1, 1) translate(-1375.000000, -670.000000) translate(1283.000000, 615.000000)">
                <path d="M154.440545,74.4313018 C153.559872,75.8623949 154.055251,77.6787823 155.431302,78.559455 C156.862395,79.4401276 158.678782,78.9447492 159.559455,77.5686982 C160.440128,76.1376051 159.944749,74.3212177 158.568698,73.440545 C157.137605,72.5598724 155.266176,73.0552508 154.440545,74.4313018 Z" id="路径" fill="#191144" fill-rule="nonzero"></path>
                <path d="M36.3695481,106.199247 C35.647361,107.366083 36.0084545,108.897554 37.2361726,109.626826 C38.3916719,110.356099 39.9082648,109.991463 40.6304519,108.7517 C41.352639,107.584865 40.9915455,106.053393 39.7638274,105.324121 C38.5361094,104.667776 37.0195165,105.032412 36.3695481,106.199247 Z" id="路径" fill="#191144" fill-rule="nonzero"></path>
                <path d="M30.4342159,31.4382184 C29.5789546,32.8512589 30.0251779,34.7105227 31.4382184,35.5657841 C32.8512589,36.4210454 34.7105227,35.9748221 35.5657841,34.5617816 C36.4210454,33.1487411 35.9748221,31.2894773 34.5617816,30.4342159 C33.1487411,29.5789546 31.2894773,30.0251779 30.4342159,31.4382184 Z" id="路径" fill="#191144" fill-rule="nonzero"></path>
                <path d="M145.367475,1.21162774 C144.635628,2.41321756 145.038144,3.94251368 146.209099,4.63433812 C147.416647,5.36257437 148.953526,4.96204444 149.648781,3.79686643 C150.344036,2.63168843 149.978112,1.06598049 148.807157,0.37415605 C147.636201,-0.354080202 146.099322,0.010037924 145.367475,1.21162774 Z" id="路径" fill="#191144" fill-rule="nonzero"></path>
                <path d="M65.367475,67.2116277 C64.6356278,68.4132176 65.0381438,69.9425137 66.2090992,70.6343381 C67.4166471,71.3625744 68.9535262,70.9620444 69.648781,69.7968664 C70.3440358,68.6316884 69.9781122,67.0659805 68.8071567,66.374156 C67.6362012,65.6459198 66.0993222,66.0100379 65.367475,67.2116277 Z" id="路径复制" fill="#191144" fill-rule="nonzero"></path>
                <path d="M176.563069,14.9191372 C175.440806,16.8363366 176.048699,19.2679066 177.919137,20.4369307 C179.836337,21.5591937 182.267907,20.9513012 183.436931,19.0808628 C184.559194,17.1636634 183.951301,14.7320934 182.080863,13.5630693 C180.163663,12.4408063 177.732093,13.0486988 176.563069,14.9191372 Z" id="路径" fill="#191144" fill-rule="nonzero"></path>
                <polygon id="路径" stroke="#16103B" stroke-width="0.5" stroke-linecap="round" stroke-linejoin="round" points="6 94.6954315 38.8062016 107 68.1092275 67.9027352"></polygon>
                <polygon id="路径" stroke="#16103B" stroke-width="0.5" stroke-linecap="round" stroke-linejoin="round" points="179 18.7289314 148 3 156.258449 76"></polygon>
                <path d="M32.4719195,32.7218328 C32.4719195,32.7218328 44.3510222,44.4488003 68.1092275,67.9027352 L179,19 L155.875736,75 C73.6065252,46.8145552 32.4719195,32.7218328 32.4719195,32.7218328 Z" id="路径" stroke="#16103B" stroke-width="0.5" stroke-linecap="round" stroke-linejoin="round"></path>
            </g>
        </g>
    </g>
</svg>